<svg id="visual" viewBox="0 0 1500 1000" width="1500" height="1000" xmlns="http://www.w3.org/2000/svg" xmlns:xlink="http://www.w3.org/1999/xlink" version="1.1"><path d="M0 101L22.7 104.3C45.3 107.7 90.7 114.3 136.2 111C181.7 107.7 227.3 94.3 272.8 102.7C318.3 111 363.7 141 409 144.3C454.3 147.7 499.7 124.3 545.2 112.7C590.7 101 636.3 101 681.8 99.3C727.3 97.7 772.7 94.3 818.2 104.3C863.7 114.3 909.3 137.7 954.8 151C1000.3 164.3 1045.7 167.7 1091 151C1136.3 134.3 1181.7 97.7 1227.2 91C1272.7 84.3 1318.3 107.7 1363.8 119.3C1409.3 131 1454.7 131 1477.3 131L1500 131L1500 0L1477.3 0C1454.7 0 1409.3 0 1363.8 0C1318.3 0 1272.7 0 1227.2 0C1181.7 0 1136.3 0 1091 0C1045.7 0 1000.3 0 954.8 0C909.3 0 863.7 0 818.2 0C772.7 0 727.3 0 681.8 0C636.3 0 590.7 0 545.2 0C499.7 0 454.3 0 409 0C363.7 0 318.3 0 272.8 0C227.3 0 181.7 0 136.2 0C90.7 0 45.3 0 22.7 0L0 0Z" fill="#bd93f9"></path><path d="M0 311L22.7 326C45.3 341 90.7 371 136.2 386C181.7 401 227.3 401 272.8 426C318.3 451 363.7 501 409 524.3C454.3 547.7 499.7 544.3 545.2 534.3C590.7 524.3 636.3 507.7 681.8 492.7C727.3 477.7 772.7 464.3 818.2 464.3C863.7 464.3 909.3 477.7 954.8 489.3C1000.3 501 1045.7 511 1091 481C1136.3 451 1181.7 381 1227.2 366C1272.7 351 1318.3 391 1363.8 387.7C1409.3 384.3 1454.7 337.7 1477.3 314.3L1500 291L1500 129L1477.3 129C1454.7 129 1409.3 129 1363.8 117.3C1318.3 105.7 1272.7 82.3 1227.2 89C1181.7 95.7 1136.3 132.3 1091 149C1045.7 165.7 1000.3 162.3 954.8 149C909.3 135.7 863.7 112.3 818.2 102.3C772.7 92.3 727.3 95.7 681.8 97.3C636.3 99 590.7 99 545.2 110.7C499.7 122.3 454.3 145.7 409 142.3C363.7 139 318.3 109 272.8 100.7C227.3 92.3 181.7 105.7 136.2 109C90.7 112.3 45.3 105.7 22.7 102.3L0 99Z" fill="#54bfff"></path><path d="M0 471L22.7 474.3C45.3 477.7 90.7 484.3 136.2 512.7C181.7 541 227.3 591 272.8 642.7C318.3 694.3 363.7 747.7 409 749.3C454.3 751 499.7 701 545.2 672.7C590.7 644.3 636.3 637.7 681.8 622.7C727.3 607.7 772.7 584.3 818.2 581C863.7 577.7 909.3 594.3 954.8 624.3C1000.3 654.3 1045.7 697.7 1091 669.3C1136.3 641 1181.7 541 1227.2 527.7C1272.7 514.3 1318.3 587.7 1363.8 596C1409.3 604.3 1454.7 547.7 1477.3 519.3L1500 491L1500 289L1477.3 312.3C1454.7 335.7 1409.3 382.3 1363.8 385.7C1318.3 389 1272.7 349 1227.2 364C1181.7 379 1136.3 449 1091 479C1045.7 509 1000.3 499 954.8 487.3C909.3 475.7 863.7 462.3 818.2 462.3C772.7 462.3 727.3 475.7 681.8 490.7C636.3 505.7 590.7 522.3 545.2 532.3C499.7 542.3 454.3 545.7 409 522.3C363.7 499 318.3 449 272.8 424C227.3 399 181.7 399 136.2 384C90.7 369 45.3 339 22.7 324L0 309Z" fill="#00ddff"></path><path d="M0 901L22.7 886C45.3 871 90.7 841 136.2 842.7C181.7 844.3 227.3 877.7 272.8 897.7C318.3 917.7 363.7 924.3 409 906C454.3 887.7 499.7 844.3 545.2 829.3C590.7 814.3 636.3 827.7 681.8 846C727.3 864.3 772.7 887.7 818.2 889.3C863.7 891 909.3 871 954.8 866C1000.3 861 1045.7 871 1091 882.7C1136.3 894.3 1181.7 907.7 1227.2 911C1272.7 914.3 1318.3 907.7 1363.8 887.7C1409.3 867.7 1454.7 834.3 1477.3 817.7L1500 801L1500 489L1477.3 517.3C1454.7 545.7 1409.3 602.3 1363.8 594C1318.3 585.7 1272.7 512.3 1227.2 525.7C1181.7 539 1136.3 639 1091 667.3C1045.7 695.7 1000.3 652.3 954.8 622.3C909.3 592.3 863.7 575.7 818.2 579C772.7 582.3 727.3 605.7 681.8 620.7C636.3 635.7 590.7 642.3 545.2 670.7C499.7 699 454.3 749 409 747.3C363.7 745.7 318.3 692.3 272.8 640.7C227.3 589 181.7 539 136.2 510.7C90.7 482.3 45.3 475.7 22.7 472.3L0 469Z" fill="#00f1d8"></path><path d="M0 1001L22.7 1001C45.3 1001 90.7 1001 136.2 1001C181.7 1001 227.3 1001 272.8 1001C318.3 1001 363.7 1001 409 1001C454.3 1001 499.7 1001 545.2 1001C590.7 1001 636.3 1001 681.8 1001C727.3 1001 772.7 1001 818.2 1001C863.7 1001 909.3 1001 954.8 1001C1000.3 1001 1045.7 1001 1091 1001C1136.3 1001 1181.7 1001 1227.2 1001C1272.7 1001 1318.3 1001 1363.8 1001C1409.3 1001 1454.7 1001 1477.3 1001L1500 1001L1500 799L1477.3 815.7C1454.7 832.3 1409.3 865.7 1363.8 885.7C1318.3 905.7 1272.7 912.3 1227.2 909C1181.7 905.7 1136.3 892.3 1091 880.7C1045.7 869 1000.3 859 954.8 864C909.3 869 863.7 889 818.2 887.3C772.7 885.7 727.3 862.3 681.8 844C636.3 825.7 590.7 812.3 545.2 827.3C499.7 842.3 454.3 885.7 409 904C363.7 922.3 318.3 915.7 272.8 895.7C227.3 875.7 181.7 842.3 136.2 840.7C90.7 839 45.3 869 22.7 884L0 899Z" fill="#50fa7b"></path></svg>